# xmcd CD database file
#
# Track frame offsets:
#	182
#	14757
#	28695
#	48972
#	65227
#	90747
#	106315
#	126015
#	142270
#	168222
#	183190
#	203077
#	207862
#	227332
#	242815
#	264325
#
# Disc length: 3904 seconds
#
# Revision: 0
# Processed by: cddbd v1.5.1PL0 Copyright (c) Steve Scherf et al.
# Submitted via: CDex 1.50beta10
#
DISCID=de0f3e10
DTITLE=Clarence Edwards - I Looked Down That Railroad (Till My Eyes Got Red And Sore)
DYEAR=1996
DGENRE=Blues
TTITLE0=She's Fine She's Mine
TTITLE1=I Found Someone To Love
TTITLE2=Highway 61
TTITLE3=Trouble Won't Last
TTITLE4=Don't Make Me Pay
TTITLE5=It's A Sin
TTITLE6=Ups And Downs
TTITLE7=I Walked All Night Long
TTITLE8=I Just Wanna Make Love To You
TTITLE9=I Miss You So
TTITLE10=Someone Else Bin Steppin' In
TTITLE11=Blue Monday
TTITLE12=I'm Your Slave
TTITLE13=Scratch My Back
TTITLE14=When The Weather Gets Cloudy
TTITLE15=I'm A Man
EXTD=YEAR: 1996
EXTT0=
EXTT1=
EXTT2=
EXTT3=
EXTT4=
EXTT5=
EXTT6=
EXTT7=
EXTT8=
EXTT9=
EXTT10=
EXTT11=
EXTT12=
EXTT13=
EXTT14=
EXTT15=
PLAYORDER=
